<?xml version="1.0" standalone="no"?>
<!DOCTYPE svg PUBLIC "-//W3C//DTD SVG 20010904//EN"
 "http://www.w3.org/TR/2001/REC-SVG-20010904/DTD/svg10.dtd">
<svg version="1.0" xmlns="http://www.w3.org/2000/svg"
 width="431.000000pt" height="431.000000pt" viewBox="0 0 431.000000 431.000000"
 preserveAspectRatio="xMidYMid meet">
<metadata>
Created by potrace 1.14, written by Peter Selinger 2001-2017
</metadata>
<g transform="translate(0.000000,431.000000) scale(0.100000,-0.100000)"
fill="#000000" stroke="none">
<path d="M1258 4175 c-4 -4 -230 -15 -412 -20 -82 -3 -167 -7 -190 -10 -163
-24 -293 -97 -400 -225 -17 -21 -68 -115 -72 -132 -1 -5 -3 -10 -4 -13 -1 -3
-4 -9 -5 -15 -1 -5 -3 -11 -5 -12 -2 -4 -6 -23 -14 -63 -6 -35 -6 -10 2 -540
4 -231 6 -733 4 -1115 -5 -1534 -7 -1379 17 -1458 31 -102 81 -172 195 -270
14 -12 31 -22 36 -22 6 0 10 -4 10 -9 0 -8 94 -59 115 -61 6 -1 15 -6 21 -11
7 -5 21 -12 33 -14 12 -3 31 -7 43 -10 84 -20 224 -24 378 -12 325 27 1220 27
2035 1 349 -11 391 -12 510 -19 106 -7 129 -5 199 14 148 41 266 138 333 276
18 38 34 71 33 73 0 1 7 28 17 60 16 51 18 93 14 412 -6 507 -5 1710 2 2150 5
335 2 431 -17 508 -3 12 -8 30 -10 40 -9 35 -50 118 -84 170 -55 84 -131 153
-213 194 -66 33 -114 53 -114 47 0 -1 -18 6 -40 15 -22 10 -41 17 -42 17 -2
-1 -4 -1 -5 0 -2 0 -10 2 -18 4 -8 2 -28 6 -45 10 -51 11 -154 14 -640 20
-258 2 -517 7 -575 10 -121 6 -1086 15 -1092 10z m-678 -159 c0 -3 -24 -21
-52 -40 -29 -19 -62 -43 -73 -53 -44 -39 -58 -44 -21 -7 22 21 62 53 90 71 57
35 56 35 56 29z"/>
</g>
</svg>
