<svg version="1.1" xmlns="http://www.w3.org/2000/svg" viewBox="0 0 215.96875 215.96875" width="431.9375" height="431.9375">
  <!-- svg-source:excalidraw -->
  
  <defs>
    <style class="style-fonts">
      @font-face {
        font-family: "Virgil";
        src: url("https://unpkg.com/@excalidraw/excalidraw@undefined/dist/excalidraw-assets/Virgil.woff2");
      }
      @font-face {
        font-family: "Cascadia";
        src: url("https://unpkg.com/@excalidraw/excalidraw@undefined/dist/excalidraw-assets/Cascadia.woff2");
      }
      @font-face {
        font-family: "Assistant";
        src: url("https://unpkg.com/@excalidraw/excalidraw@undefined/dist/excalidraw-assets/Assistant-Regular.woff2");
      }
    </style>
    
  </defs>
  <g stroke-linecap="round" transform="translate(10 10) rotate(0 97.984375 97.984375)"><path d="M32 0 C69.26 -8.31, 105.86 0.85, 163.97 0 C185.91 2.78, 193.69 9.39, 195.97 32 C195.49 71.52, 189.86 111.07, 195.97 163.97 C198.06 187.44, 190.24 198.63, 163.97 195.97 C123.9 195.44, 81.47 193.46, 32 195.97 C14.23 193.47, 1.1 188.54, 0 163.97 C0.71 116.27, 4.9 63.6, 0 32 C3.84 13.67, 14.66 4.77, 32 0" stroke="none" stroke-width="0" fill="#f8f9fa"></path><path d="M32 0 C81.81 -3.94, 128.57 1.58, 163.97 0 M32 0 C67.21 1.05, 103.64 -0.13, 163.97 0 M163.97 0 C184.56 3.1, 195.2 13.87, 195.97 32 M163.97 0 C185.88 3.86, 192.49 10.9, 195.97 32 M195.97 32 C192.96 60.98, 193.35 100.82, 195.97 163.97 M195.97 32 C195.78 65.2, 194.07 97.58, 195.97 163.97 M195.97 163.97 C197.29 185.51, 184.22 199.81, 163.97 195.97 M195.97 163.97 C193.32 185.87, 184.58 195.96, 163.97 195.97 M163.97 195.97 C110.88 191.9, 61.76 192.93, 32 195.97 M163.97 195.97 C111.74 194.19, 61.36 193.08, 32 195.97 M32 195.97 C10.43 193.08, -2.64 183.49, 0 163.97 M32 195.97 C15.23 196.32, -1.05 185.86, 0 163.97 M0 163.97 C-0.66 130.33, 1.39 101.51, 0 32 M0 163.97 C2.59 134.4, -0.41 104.74, 0 32 M0 32 C3.3 11.86, 11.26 1.3, 32 0 M0 32 C-3.86 14.74, 9.26 -2.17, 32 0" stroke="#1e1e1e" stroke-width="4" fill="none"></path></g><g stroke-linecap="round"><g transform="translate(185.4785532203133 73.78439572589762) rotate(0 -80.03957784664388 45.68614032079036)"><path d="M0.47 -2.56 C-5.29 -3.67, -23.14 -6.85, -33.79 -4.34 C-44.43 -1.83, -56.49 5.78, -63.39 12.51 C-70.3 19.23, -71.31 26.39, -75.2 35.99 C-79.1 45.6, -80.4 60.78, -86.77 70.13 C-93.14 79.48, -101.34 88.06, -113.41 92.08 C-125.47 96.1, -151.44 93.83, -159.15 94.25 M-2.72 2.23 C-8.76 2.71, -25.93 -3.6, -35.06 -1.39 C-44.2 0.82, -51.04 9.01, -57.51 15.48 C-63.99 21.94, -68.67 28.29, -73.92 37.42 C-79.17 46.54, -81.72 61.28, -89.01 70.22 C-96.29 79.15, -106.26 87.59, -117.62 91.05 C-128.97 94.51, -149.76 90.5, -157.13 90.96" stroke="#ffa94d" stroke-width="4" fill="none"></path></g></g><mask></mask><g stroke-linecap="round"><g transform="translate(183.32341386854978 69.56255209651826) rotate(0 -80.03957784664388 45.68614032079036)"><path d="M-0.07 0.51 C-5.77 0.33, -24.18 -3.99, -34.39 -2.1 C-44.61 -0.21, -54.23 5.05, -61.34 11.86 C-68.46 18.67, -72.54 28.86, -77.1 38.76 C-81.65 48.65, -82.22 62.66, -88.66 71.26 C-95.11 79.86, -103.78 86.66, -115.76 90.35 C-127.74 94.04, -153.21 92.72, -160.54 93.39 M-1.56 -0.26 C-7.3 -0.67, -24.66 -5.87, -34.73 -3.7 C-44.79 -1.54, -54.88 6.01, -61.95 12.71 C-69.03 19.41, -72.51 26.72, -77.17 36.51 C-81.83 46.29, -83.71 62.55, -89.93 71.43 C-96.16 80.31, -102.81 85.83, -114.52 89.78 C-126.22 93.73, -152.46 94.44, -160.14 95.15" stroke="#e64980" stroke-width="2" fill="none"></path></g></g><mask></mask><g stroke-linecap="round"><g transform="translate(181.1232514149466 62.79374329696466) rotate(0 -80.03957784664388 45.686140320790365)"><path d="M2.26 0.42 C-3.19 0.08, -22.6 -6.47, -33.68 -4.84 C-44.76 -3.21, -57.2 3.24, -64.22 10.2 C-71.24 17.17, -71.79 26.96, -75.78 36.93 C-79.78 46.9, -81.93 61.21, -88.2 70.03 C-94.46 78.86, -101.37 85.52, -113.38 89.87 C-125.38 94.23, -152.79 95.64, -160.25 96.17 M0.05 -1.81 C-5.52 -1.58, -25.09 -4.45, -34.89 -2.16 C-44.7 0.13, -52.13 5.09, -58.79 11.93 C-65.44 18.76, -69.41 29.17, -74.82 38.86 C-80.22 48.55, -84.09 61.94, -91.21 70.07 C-98.34 78.2, -106.3 83.67, -117.57 87.65 C-128.84 91.62, -151.84 93.28, -158.82 93.92" stroke="#9775fa" stroke-width="4" fill="none"></path></g></g><mask></mask><g stroke-linecap="round"><g transform="translate(179.1101699694941 55.68716047610538) rotate(0 -80.03957784664388 45.68614032079036)"><path d="M-0.92 -0.65 C-6.66 -0.83, -24.37 -4.35, -34.69 -2.05 C-45.01 0.25, -56 6.31, -62.83 13.14 C-69.67 19.97, -71.45 29.18, -75.69 38.93 C-79.93 48.69, -81.8 63.35, -88.28 71.66 C-94.76 79.98, -102.61 84.92, -114.56 88.83 C-126.51 92.75, -152.33 94.09, -159.97 95.15 M0.8 1.62 C-5.01 1.21, -24.95 -5.2, -35.18 -3.63 C-45.41 -2.07, -53.92 4.27, -60.56 11 C-67.2 17.74, -70.23 26.6, -75.02 36.77 C-79.82 46.95, -82.46 62.99, -89.35 72.05 C-96.24 81.11, -104.7 87.44, -116.35 91.13 C-128 94.81, -151.73 93.48, -159.27 94.17" stroke="#e64980" stroke-width="2" fill="none"></path></g></g><mask></mask></svg>